<svg xmlns="http://www.w3.org/2000/svg" version="1.1" xmlns:xlink="http://www.w3.org/1999/xlink" xmlns:svgjs="http://svgjs.com/svgjs" width="127.55" height="152.63"><svg id="SvgjsSvg1000" data-name="Layer 1" xmlns="http://www.w3.org/2000/svg" viewBox="0 0 127.55 152.63"><defs><style>.cls-1{isolation:isolate;}.cls-2{fill:#f58232;}.cls-3{fill:#fff;}</style></defs><polygon points="2.6 19.1 2.6 150.36 124.34 133.41 124.34 2.47 2.6 19.1"></polygon><g class="cls-1"><path class="cls-2" d="M80.94,88.43l1.32-.18A4.79,4.79,0,0,0,83.35,91a3.22,3.22,0,0,0,2.51.37l45.66-6.3A4.06,4.06,0,0,0,134,84a6.58,6.58,0,0,0,1.14-3.06l1.31-.18-.09,14.69-1.32.18a4.72,4.72,0,0,0-1.1-2.75,3.25,3.25,0,0,0-2.51-.38l-19.54,2.7-.41,64a7,7,0,0,0,.52,3.28,3,3,0,0,0,2.08,1.29v1.81l-11.84,1.63v-1.81a4.5,4.5,0,0,0,2.11-1.84,8.12,8.12,0,0,0,.56-3.45l.41-64-19.54,2.7a4.06,4.06,0,0,0-2.52,1.06,6.32,6.32,0,0,0-1.14,3.07l-1.32.18Z" transform="translate(-72.93 -50.14)"></path><path class="cls-2" d="M73.82,67.11l126.66-17-.9,135.65-84.17,11.29-42.48,5.69L73.21,160ZM195.46,181.89l.83-126.74L78,71l-.83,126.74,118.34-15.86" transform="translate(-72.93 -50.14)"></path><path class="cls-3" d="M149.12,106.9a8.6,8.6,0,0,1-.69,6.15q-2.27,4.59-8.73,5.52l-1,.11,1.36,10.46a24.3,24.3,0,0,0,3.77-4.08l3.23,2.78a29,29,0,0,1-6.2,6.11,25.69,25.69,0,0,0,1.93,7.54l-4.06,2.13a25.15,25.15,0,0,1-2.07-7.05,14.55,14.55,0,0,1-4.36,1.41c-.39.06-.77.09-1.14.11a10,10,0,0,1-5-1.1,9.26,9.26,0,0,1-5.26-7.06,12.08,12.08,0,0,1,1.1-7.53,11.26,11.26,0,0,1,4.54-4.89,15.2,15.2,0,0,1,5.4-1.76c.61-.09,1.25-.15,1.91-.19a24,24,0,0,1-.39-5.62,9.93,9.93,0,0,1,1-3.54,8.68,8.68,0,0,1,4.7-4.38,8.32,8.32,0,0,1,1.83-.5,7.42,7.42,0,0,1,4.43.78A6.87,6.87,0,0,1,149.12,106.9ZM131.9,133.78a9.74,9.74,0,0,0,4.16-1.65l-1.74-12.89a14.67,14.67,0,0,0-5.7,1.87,7.78,7.78,0,0,0-2.7,3,9.36,9.36,0,0,0-.75,5,5,5,0,0,0,2.83,4.22,6.42,6.42,0,0,0,3.86.47h0m12.8-22.48a4.93,4.93,0,0,0,.5-3.36,3.2,3.2,0,0,0-1.74-2.28,3.24,3.24,0,0,0-2-.34,3.7,3.7,0,0,0-.94.27,4.52,4.52,0,0,0-2.29,2.25,5.31,5.31,0,0,0-.51,1.86,10.73,10.73,0,0,0,.05,2.38l.41,3a11.18,11.18,0,0,0,4.44-1.35,6.08,6.08,0,0,0,2-2.38" transform="translate(-72.93 -50.14)"></path><path class="cls-2" d="M159.79,79.74l11.83-1.64v1.82a4.37,4.37,0,0,0-2.11,1.86,8,8,0,0,0-.56,3.43l-.41,64,19.54-2.7a4.11,4.11,0,0,0,2.52-1.07,6.32,6.32,0,0,0,1.14-3.06l1.31-.18L193,156.88l-1.31.18a4.82,4.82,0,0,0-1.1-2.75,3.22,3.22,0,0,0-2.51-.38l-45.66,6.31a4,4,0,0,0-2.52,1.07,6.44,6.44,0,0,0-1.13,3.06l-1.32.18.09-14.69,1.32-.18a4.72,4.72,0,0,0,1.1,2.75,3.26,3.26,0,0,0,2.51.37L162,150.1l.41-64a7.08,7.08,0,0,0-.52-3.31,3,3,0,0,0-2.08-1.26Z" transform="translate(-72.93 -50.14)"></path></g></svg><style>@media (prefers-color-scheme: light) { :root { filter: none; } }
</style></svg>