<svg id="Layer_1" data-name="Layer 1" xmlns="http://www.w3.org/2000/svg" viewBox="0 0 127.61 185.56"><defs><style>.cls-1{isolation:isolate;}.cls-2{fill:#f58232;}.cls-3{fill:#fff;}</style></defs><polygon points="2.66 19.1 2.66 150.36 124.4 133.41 124.4 2.47 2.66 19.1"/><g class="cls-1"><path d="M189.84,200.62l.25,0a22.38,22.38,0,0,1,5.18-.3,4.13,4.13,0,0,1,2.63,1.2,4.41,4.41,0,0,1,1,2.12,19.14,19.14,0,0,1,.28,3.89l-.07,10.37-2.58.36.06-9.13a24.25,24.25,0,0,0-.16-3.5,3.44,3.44,0,0,0-.72-1.69,2.92,2.92,0,0,0-2-.93,16.74,16.74,0,0,0-4,.21.86.86,0,0,0-.17,0,17.27,17.27,0,0,0-4.47,1.12,5.7,5.7,0,0,0-2.5,2,5.05,5.05,0,0,0-.77,1.93,23.43,23.43,0,0,0-.21,3.63l0,8.48-2.58.37.11-18.35,2.59-.37,0,2.77.19,0A5.29,5.29,0,0,1,184.4,202,19.16,19.16,0,0,1,189.84,200.62Z" transform="translate(-72.87 -50.14)"/></g><g class="cls-1"><path d="M173.73,203.11l2.59-.36-.09,13.73a41.31,41.31,0,0,1-.43,6.64,6.61,6.61,0,0,1-2,3.69,7.32,7.32,0,0,1-2.87,1.56,37.55,37.55,0,0,1-5.29,1.06l-.48.07a23,23,0,0,1-6.05.27,4.16,4.16,0,0,1-2.92-1.65,3.43,3.43,0,0,1-.59-1.28,9.31,9.31,0,0,1-.14-1.93l2.64-.37a4.45,4.45,0,0,0,.33,1.55,1.83,1.83,0,0,0,.87.82c.9.48,2.77.51,5.6.11l.39-.06a28.85,28.85,0,0,0,4.94-1.05,4.49,4.49,0,0,0,2.34-1.64,5.32,5.32,0,0,0,.73-1.94,32.86,32.86,0,0,0,.3-3.91l-.17,0a6,6,0,0,1-2.54,2.31,22.29,22.29,0,0,1-5.07,1.16l-.35,0a29.32,29.32,0,0,1-5.1.4A4.58,4.58,0,0,1,155.7,219a13.45,13.45,0,0,1-.59-4.56c0-4.07,1.15-6.86,3.37-8.36a9.8,9.8,0,0,1,2.75-1.17q1.54-.4,4.38-.84l.53-.07a29,29,0,0,1,3.85-.37,4.6,4.6,0,0,1,2,.39,3.84,3.84,0,0,1,1.61,1.51l.15,0Zm-.08,8.45a9.79,9.79,0,0,0-.45-3.45,2.68,2.68,0,0,0-1.55-1.59c-.94-.39-2.79-.38-5.55,0l-.26,0q-4.54.66-6.06,1.74c-1.27.92-1.92,2.85-1.94,5.82s.69,4.79,2.11,5.35q1.28.53,5.73-.11l.25,0q4.63-.68,5.92-1.79a4.44,4.44,0,0,0,1.37-2.2,14.14,14.14,0,0,0,.43-3.79" transform="translate(-72.87 -50.14)"/></g><g class="cls-1"><polygon points="77.03 174.68 77.14 156.33 79.72 155.97 79.61 174.32 77.03 174.68"/></g><g class="cls-1"><polygon points="77.19 148.3 79.77 147.94 79.75 151.37 77.17 151.74 77.19 148.3"/></g><g class="cls-1"><path d="M146.26,216.18c.81.72,1.21,2,1.2,3.8a7.55,7.55,0,0,1-.45,2.73,4.6,4.6,0,0,1-1.39,1.88,7.52,7.52,0,0,1-2.75,1.2,46.3,46.3,0,0,1-4.93.94l-.57.08a49.08,49.08,0,0,1-6,.57,5.41,5.41,0,0,1-2.85-.57,3,3,0,0,1-1.28-1.49,7.6,7.6,0,0,1-.35-2.69q0-.23,0-1l2.74-.4c0,.27,0,.44,0,.53a5.49,5.49,0,0,0,.27,2.07,1.64,1.64,0,0,0,1.12.83c.74.19,2.87,0,6.4-.46l.6-.09c1.88-.28,3.22-.52,4-.72a4.23,4.23,0,0,0,1.86-.92,2.85,2.85,0,0,0,.78-2.13c0-1.11-.3-1.82-.91-2.14a6.12,6.12,0,0,0-3.33-.12l-.21,0c-.79.11-3.19.42-7.23.92a12.76,12.76,0,0,1-2.76.08,3.71,3.71,0,0,1-1.72-.62c-.86-.64-1.28-1.87-1.27-3.67a5.74,5.74,0,0,1,1.65-4.38,4.82,4.82,0,0,1,1.12-.73,11.54,11.54,0,0,1,1.7-.64,38.55,38.55,0,0,1,5.13-1l.48-.07a26,26,0,0,1,6-.35,4,4,0,0,1,2.83,1.38,2.67,2.67,0,0,1,.57,1.23,14.07,14.07,0,0,1,.11,2.3l-2.7.38a3.26,3.26,0,0,0-.48-2.14,3.18,3.18,0,0,0-2.06-.58,27,27,0,0,0-4.41.35l-.36.05a27.41,27.41,0,0,0-4.78,1,4.32,4.32,0,0,0-1.27.65,2.81,2.81,0,0,0-.83,2.21c0,1,.31,1.61.94,1.85a8.27,8.27,0,0,0,3.4,0l.47-.08.85-.12,1.09-.16c1.57-.2,3.4-.41,5.5-.61C144.12,215.19,145.45,215.45,146.26,216.18Z" transform="translate(-72.87 -50.14)"/></g><g class="cls-1"><path d="M121.71,225.12a4,4,0,0,0,.61-2.05l2.69-.38a6,6,0,0,1-2.08,4.86q-2,1.55-6.7,2.24a1.81,1.81,0,0,1-.23,0,39.26,39.26,0,0,1-6.19.52,6.14,6.14,0,0,1-3.18-.76c-1.64-1.08-2.44-3.56-2.42-7.43a15.17,15.17,0,0,1,1.08-6.27,6.41,6.41,0,0,1,2.89-3,21.2,21.2,0,0,1,5.95-1.52l.31,0a25.41,25.41,0,0,1,6.06-.36,4.54,4.54,0,0,1,3,1.52,5.75,5.75,0,0,1,1.25,2.6,25.54,25.54,0,0,1,.35,4.79L107,222.37c.05,2.26.44,3.77,1.17,4.51a3.39,3.39,0,0,0,2.35.85,30,30,0,0,0,5.26-.43l.28,0a21.57,21.57,0,0,0,3.77-.81A4.05,4.05,0,0,0,121.71,225.12Zm-13.23-9.28a6.27,6.27,0,0,0-1.42,4l15.18-2.15c0-1.78-.42-3-1.25-3.57a4.18,4.18,0,0,0-2.29-.67,25.84,25.84,0,0,0-4.35.33l-.27,0a21.43,21.43,0,0,0-3.54.76,5.14,5.14,0,0,0-2.06,1.21" transform="translate(-72.87 -50.14)"/></g><g class="cls-1"><path d="M101.68,212.38a49.75,49.75,0,0,1,.25,6,31.73,31.73,0,0,1-.82,7.8A7.8,7.8,0,0,1,96,232a38.73,38.73,0,0,1-6,1.24l-.67.1-16.39,2.31L73,209.31,89.19,207a38.63,38.63,0,0,1,7.54-.56,4.87,4.87,0,0,1,4,2.59A9.22,9.22,0,0,1,101.68,212.38Zm-3,6.32q0-6.22-1.37-8a2.6,2.6,0,0,0-1.39-.93,7.67,7.67,0,0,0-2.38-.2c-.59,0-2.08.22-4.46.55l-13,1.83L76,232.16l13.13-1.85,1.92-.28c1.14-.17,1.9-.29,2.26-.36a9.94,9.94,0,0,0,1.8-.57,4.94,4.94,0,0,0,2.74-3.19,24.13,24.13,0,0,0,.86-7.21" transform="translate(-72.87 -50.14)"/></g><g class="cls-1"><path class="cls-2" d="M80.94,88.43l1.32-.18A4.79,4.79,0,0,0,83.35,91a3.22,3.22,0,0,0,2.51.37l45.66-6.3A4.06,4.06,0,0,0,134,84a6.58,6.58,0,0,0,1.14-3.06l1.31-.18-.09,14.69-1.32.18a4.72,4.72,0,0,0-1.1-2.75,3.25,3.25,0,0,0-2.51-.38l-19.54,2.7-.41,64a7,7,0,0,0,.52,3.28,3,3,0,0,0,2.08,1.29v1.81l-11.84,1.63v-1.81a4.5,4.5,0,0,0,2.11-1.84,8.12,8.12,0,0,0,.56-3.45l.41-64-19.54,2.7a4.06,4.06,0,0,0-2.52,1.06,6.32,6.32,0,0,0-1.14,3.07l-1.32.18Z" transform="translate(-72.87 -50.14)"/><path class="cls-2" d="M73.82,67.11l126.66-17-.9,135.65-84.17,11.29-42.48,5.69L73.21,160ZM195.46,181.89l.83-126.74L78,71l-.83,126.74,118.34-15.86" transform="translate(-72.87 -50.14)"/><path class="cls-3" d="M149.12,106.9a8.6,8.6,0,0,1-.69,6.15q-2.27,4.59-8.73,5.52l-1,.11,1.36,10.46a24.3,24.3,0,0,0,3.77-4.08l3.23,2.78a29,29,0,0,1-6.2,6.11,25.69,25.69,0,0,0,1.93,7.54l-4.06,2.13a25.15,25.15,0,0,1-2.07-7.05,14.55,14.55,0,0,1-4.36,1.41c-.39.06-.77.09-1.14.11a10,10,0,0,1-5-1.1,9.26,9.26,0,0,1-5.26-7.06,12.08,12.08,0,0,1,1.1-7.53,11.26,11.26,0,0,1,4.54-4.89,15.2,15.2,0,0,1,5.4-1.76c.61-.09,1.25-.15,1.91-.19a24,24,0,0,1-.39-5.62,9.93,9.93,0,0,1,1-3.54,8.68,8.68,0,0,1,4.7-4.38,8.32,8.32,0,0,1,1.83-.5,7.42,7.42,0,0,1,4.43.78A6.87,6.87,0,0,1,149.12,106.9ZM131.9,133.78a9.74,9.74,0,0,0,4.16-1.65l-1.74-12.89a14.67,14.67,0,0,0-5.7,1.87,7.78,7.78,0,0,0-2.7,3,9.36,9.36,0,0,0-.75,5,5,5,0,0,0,2.83,4.22,6.42,6.42,0,0,0,3.86.47h0m12.8-22.48a4.93,4.93,0,0,0,.5-3.36,3.2,3.2,0,0,0-1.74-2.28,3.24,3.24,0,0,0-2-.34,3.7,3.7,0,0,0-.94.27,4.52,4.52,0,0,0-2.29,2.25,5.31,5.31,0,0,0-.51,1.86,10.73,10.73,0,0,0,.05,2.38l.41,3a11.18,11.18,0,0,0,4.44-1.35,6.08,6.08,0,0,0,2-2.38" transform="translate(-72.87 -50.14)"/><path class="cls-2" d="M159.79,79.74l11.83-1.64v1.82a4.37,4.37,0,0,0-2.11,1.86,8,8,0,0,0-.56,3.43l-.41,64,19.54-2.7a4.11,4.11,0,0,0,2.52-1.07,6.32,6.32,0,0,0,1.14-3.06l1.31-.18L193,156.88l-1.31.18a4.82,4.82,0,0,0-1.1-2.75,3.22,3.22,0,0,0-2.51-.38l-45.66,6.31a4,4,0,0,0-2.52,1.07,6.44,6.44,0,0,0-1.13,3.06l-1.32.18.09-14.69,1.32-.18a4.72,4.72,0,0,0,1.1,2.75,3.26,3.26,0,0,0,2.51.37L162,150.1l.41-64a7.08,7.08,0,0,0-.52-3.31,3,3,0,0,0-2.08-1.26Z" transform="translate(-72.87 -50.14)"/></g></svg>